<?xml version="1.0" encoding="utf-8"?>
<!-- Generator: Adobe Illustrator 19.0.0, SVG Export Plug-In . SVG Version: 6.00 Build 0)  -->
<svg version="1.1" id="Layer_1" xmlns="http://www.w3.org/2000/svg" xmlns:xlink="http://www.w3.org/1999/xlink" x="0px" y="0px"
	 viewBox="0 0 37 23" style="enable-background:new 0 0 37 23;" xml:space="preserve">
<style type="text/css">
	.st0{fill:#FFFFFF;}
</style>
<path id="XMLID_46_" class="st0" d="M2.3,4.5h32.5c1.2,0,2.3-1,2.3-2.3C37,1,36,0,34.8,0H2.3C1,0,0,1,0,2.3C0,3.5,1,4.5,2.3,4.5z"/>
<path id="XMLID_47_" class="st0" d="M34.8,9.3H2.3C1,9.3,0,10.3,0,11.5c0,1.2,1,2.3,2.3,2.3h32.5c1.2,0,2.3-1,2.3-2.3
	C37,10.3,36,9.3,34.8,9.3z"/>
<path id="XMLID_48_" class="st0" d="M24.8,18.5H2.3c-1.2,0-2.3,1-2.3,2.3C0,22,1,23,2.3,23h22.5c1.2,0,2.3-1,2.3-2.3
	C27,19.5,26,18.5,24.8,18.5z"/>
</svg>
