<?xml version="1.0" encoding="utf-8"?>
<!-- Generator: Adobe Illustrator 24.0.3, SVG Export Plug-In . SVG Version: 6.00 Build 0)  -->
<svg version="1.1" id="Layer_1" xmlns="http://www.w3.org/2000/svg" xmlns:xlink="http://www.w3.org/1999/xlink" x="0px" y="0px"
	 viewBox="0 0 360 360" style="enable-background:new 0 0 360 360;" xml:space="preserve">
<style type="text/css">
	.st0{fill:#FFFFFF;}
	.st1{fill:url(#SVGID_1_);}
	.st2{fill:url(#SVGID_2_);}
	.st3{fill:url(#SVGID_3_);}
	.st4{fill:url(#SVGID_4_);}
	.st5{fill:url(#SVGID_5_);}
	.st6{opacity:0.25;}
	.st7{fill:#CCC193;}
	.st8{fill:#9146FF;}
	.st9{fill:#333333;}
	.st10{fill:url(#SVGID_6_);}
	.st11{fill:#7222A7;}
	.st12{fill:url(#SVGID_7_);}
	.st13{fill-rule:evenodd;clip-rule:evenodd;fill:url(#SVGID_8_);}
	.st14{fill:url(#SVGID_9_);}
	.st15{fill:url(#SVGID_10_);}
</style>
<g>
	<path class="st0" d="M314.59,181.85l31.67-38.54L260.81,23.55h-37.45l0.35-0.43l-8.03-3.78c-2.41-1.14-4.64-2.15-6.83-3.1
		l-4.34-1.89l-3.23,3.46c-1.06,1.14-2.11,2.28-3.14,3.43l-11.1,2.31H99.18L13.75,143.3l31.67,38.54H10.34v34.85l10.35-0.52
		c1.86-0.09,3.72-0.19,5.59-0.28l-0.13,46.38l17.28,10.63l8.44-1.69c5.08-1.02,10.19-1.98,15.2-2.86l7.57-1.33l0.09-17.27l1.06,3.75
		l11.58,11.58l5.52-0.73v15.38c0,6.31,2.47,11.46,6.97,14.52l7.29,5.78l0.97,0.75l0.18-0.01c2.5,1.46,5.54,2.23,8.87,2.23h27.76
		l35.05,42.66l35.06-42.66h41.6l10.35-7.3v-27.16h-7.11l3.32-4.98c1.61-0.02,3.14-0.2,4.56-0.52l0.01,1.36l7.8,1.16
		c5.07,0.75,10.2,1.57,15.25,2.45l8.41,1.45l0.45-0.33l0,0.43l7.39,1.47c4.99,0.99,10.08,2.07,15.14,3.2l8.48,1.9l18.96-10.15v-84.1
		H314.59z"/>
	<g>
		<g>
			<g>
				<polygon points="259.16,26.74 100.82,26.74 17.76,143.17 179.99,340.62 342.23,143.17 				"/>
				<linearGradient id="SVGID_1_" gradientUnits="userSpaceOnUse" x1="233.6614" y1="212.3466" x2="261.7619" y2="240.4472">
					<stop  offset="0" style="stop-color:#7222A7"/>
					<stop  offset="1" style="stop-color:#9146FF"/>
				</linearGradient>
				<polygon class="st1" points="304.13,141.87 179.99,292.96 179.99,322.22 327.52,142.67 				"/>
				<linearGradient id="SVGID_2_" gradientUnits="userSpaceOnUse" x1="240.0311" y1="51.5415" x2="329.3413" y2="140.8517">
					<stop  offset="0" style="stop-color:#7222A7"/>
					<stop  offset="1" style="stop-color:#9146FF"/>
				</linearGradient>
				<polygon class="st2" points="304.13,141.87 304.13,141.87 327.52,142.67 253.15,38.43 243.58,57 				"/>
				<linearGradient id="SVGID_3_" gradientUnits="userSpaceOnUse" x1="141.1645" y1="4.1037" x2="218.822" y2="81.7612">
					<stop  offset="0" style="stop-color:#7222A7"/>
					<stop  offset="1" style="stop-color:#9146FF"/>
				</linearGradient>
				<polygon class="st3" points="243.58,57 253.15,38.43 106.84,38.43 116.41,57 				"/>
				<linearGradient id="SVGID_4_" gradientUnits="userSpaceOnUse" x1="62.1902" y1="83.078" x2="88.4216" y2="109.3093">
					<stop  offset="0" style="stop-color:#7222A7"/>
					<stop  offset="1" style="stop-color:#9146FF"/>
				</linearGradient>
				<polygon class="st4" points="55.86,141.87 116.41,57 116.41,57 106.84,38.43 32.48,142.66 55.86,141.87 				"/>
				<linearGradient id="SVGID_5_" gradientUnits="userSpaceOnUse" x1="30.5127" y1="144.6273" x2="194.0472" y2="308.1618">
					<stop  offset="0" style="stop-color:#7222A7"/>
					<stop  offset="1" style="stop-color:#9146FF"/>
				</linearGradient>
				<polygon class="st5" points="179.99,322.22 179.99,292.96 107.35,204.54 83.39,175.38 55.86,141.87 32.48,142.66 179.99,322.22 
									"/>
				<path class="st6" d="M243.58,57l60.56,84.87L179.99,292.96L55.86,141.87L116.41,57H243.58 M248.24,47.94h-4.67H116.41h-4.67
					l-2.71,3.8l-60.54,84.86l-4.03,5.65l4.41,5.36l124.13,151.09l7,8.52l7-8.52l124.14-151.08l4.41-5.36l-4.03-5.65l-60.55-84.87
					L248.24,47.94L248.24,47.94z"/>
			</g>
			<g>
				<g>
					<path class="st0" d="M82.88,86.14c-1.57-3.33-4.2-6.06-7.46-7.74c-0.35-0.18-0.35-0.69,0-0.87c3.26-1.69,5.89-4.41,7.46-7.74
						c0.18-0.38,0.71-0.38,0.89,0c1.57,3.33,4.2,6.06,7.46,7.74c0.35,0.18,0.35,0.69,0,0.87c-3.26,1.69-5.89,4.41-7.46,7.74
						C83.6,86.52,83.06,86.52,82.88,86.14z"/>
					<path class="st0" d="M94.13,73.39c-0.78-1.66-2.1-3.03-3.73-3.87c-0.18-0.09-0.18-0.34,0-0.44c1.63-0.84,2.95-2.21,3.73-3.87
						c0.09-0.19,0.36-0.19,0.45,0c0.78,1.66,2.1,3.03,3.73,3.87c0.18,0.09,0.18,0.34,0,0.44c-1.63,0.84-2.95,2.21-3.73,3.87
						C94.48,73.58,94.22,73.58,94.13,73.39z"/>
					<path class="st0" d="M98.09,94.5c-0.94-1.99-2.51-3.62-4.46-4.63c-0.21-0.11-0.21-0.41,0-0.52c1.95-1.01,3.52-2.64,4.46-4.63
						c0.11-0.23,0.43-0.23,0.53,0c0.94,1.99,2.51,3.62,4.46,4.63c0.21,0.11,0.21,0.41,0,0.52c-1.95,1.01-3.52,2.64-4.46,4.63
						C98.52,94.73,98.2,94.73,98.09,94.5z"/>
					<path class="st0" d="M72.56,148.62c-0.94-1.99-2.51-3.62-4.46-4.63c-0.21-0.11-0.21-0.41,0-0.52c1.95-1.01,3.52-2.64,4.46-4.63
						c0.11-0.23,0.43-0.23,0.53,0c0.94,1.99,2.51,3.62,4.46,4.63c0.21,0.11,0.21,0.41,0,0.52c-1.95,1.01-3.52,2.64-4.46,4.63
						C72.99,148.85,72.67,148.85,72.56,148.62z"/>
					<path class="st0" d="M63.62,161.22c-1.13-2.4-3.03-4.37-5.39-5.59c-0.26-0.13-0.26-0.5,0-0.63c2.35-1.22,4.25-3.19,5.39-5.59
						c0.13-0.27,0.52-0.27,0.65,0c1.13,2.4,3.03,4.37,5.39,5.59c0.26,0.13,0.26,0.5,0,0.63c-2.35,1.22-4.25,3.19-5.39,5.59
						C64.14,161.49,63.75,161.49,63.62,161.22z"/>
				</g>
				<g>
					<path class="st0" d="M303.96,157.57c-1.41-3-3.78-5.45-6.71-6.97c-0.32-0.17-0.32-0.62,0-0.79c2.93-1.52,5.3-3.97,6.71-6.97
						c0.16-0.34,0.64-0.34,0.8,0c1.41,3,3.78,5.45,6.71,6.97c0.32,0.17,0.32,0.62,0,0.79c-2.93,1.52-5.3,3.97-6.71,6.97
						C304.61,157.91,304.12,157.91,303.96,157.57z"/>
					<path class="st0" d="M295.61,142.08c-0.78-1.66-2.1-3.03-3.73-3.87c-0.18-0.09-0.18-0.34,0-0.44c1.63-0.84,2.95-2.21,3.73-3.87
						c0.09-0.19,0.36-0.19,0.45,0c0.78,1.66,2.1,3.03,3.73,3.87c0.18,0.09,0.18,0.34,0,0.44c-1.63,0.84-2.95,2.21-3.73,3.87
						C295.96,142.27,295.7,142.27,295.61,142.08z"/>
					<path class="st0" d="M311.05,135.39c-0.94-1.99-2.51-3.62-4.46-4.63c-0.21-0.11-0.21-0.41,0-0.52
						c1.95-1.01,3.52-2.64,4.46-4.63c0.11-0.23,0.43-0.23,0.53,0c0.94,1.99,2.51,3.62,4.46,4.63c0.21,0.11,0.21,0.41,0,0.52
						c-1.95,1.01-3.52,2.64-4.46,4.63C311.48,135.61,311.16,135.61,311.05,135.39z"/>
				</g>
			</g>
		</g>
		<g>
			<path d="M229.75,111.7c0,0,7.18-5.09,17.94-6.67l-12.01,8.01L229.75,111.7z"/>
			<path d="M242.45,107.2c0,0,2.45,2.99,0,5.99c0,0-4.19,0.58-3.77-3.68L242.45,107.2z"/>
		</g>
		<polygon class="st6" points="145.92,42.37 153.4,39.54 180.92,39.33 201.22,53.02 221.51,61.14 243.45,56.59 233.09,54.18 
			245.49,45.62 230.33,41.07 203.08,26.23 165.82,33.48 151.97,36.97 		"/>
		<path class="st6" d="M136.58,52.93L134.05,60c0,0-14.86,43.32,0.4,76.32c0,0-18.06-9.96-24.64-6.58c0,0,33.7,11.56,39.82,44.56
			c0,0-16.24-26.62-38.95-19.52s-28.03,38.68-28.03,38.68l-22.13-7.46l13.9-28.01l15.76-10.97l38.6-84.15L136.58,52.93z"/>
		<path class="st6" d="M141.23,152.68l-12.42-7.14l-18.99-15.8l17.7,7.9l-3.79-31.44L134.05,60l-16.87,25.32l0.14,1.12l-1.5,1.59
			l-25.64,58.98l-15.76,10.97l-13.9,28.01l7.85,11.79l7.95-11.16l8.82-1.05c0,0,6.39-27.69,28.87-31
			c22.48-3.31,35.62,19.73,35.62,19.73L141.23,152.68z"/>
		<g>
			<polygon class="st7" points="260.64,119.69 256.3,103.79 264.25,89.33 211.84,86.08 197.02,139.57 250.51,146.44 			"/>
			<path d="M251.9,148.74l-57.56-7.39l15.92-57.48l57.43,3.56l-9.14,16.62l4.29,15.74L251.9,148.74z M199.7,137.79l49.44,6.35
				l9.29-24.55l-4.38-16.07l6.76-12.29l-47.39-2.94L199.7,137.79z"/>
		</g>
		<g>
			<polygon class="st8" points="241.59,149.12 267.56,195.16 202.63,195.16 			"/>
			<polygon class="st6" points="241.59,149.12 267.56,195.16 202.63,195.16 			"/>
			<path d="M272.37,197.97h-75.79l45.47-53.74L272.37,197.97z M208.68,192.35h54.07l-21.63-38.34L208.68,192.35z"/>
		</g>
		<polygon points="249.01,123.25 251.41,112.37 253.22,123.36 		"/>
		<g>
			<path class="st9" d="M230.4,193.27c0,0,33.96-34.92,36.59-56.31l-4.96-19.79c0,0-20.17,7.79-51.8,5.5l-13.29,23.84L230.4,193.27z
				"/>
			<path d="M230.07,197.64l-36.46-50.94l15.03-26.96l1.78,0.13c30.65,2.22,50.39-5.24,50.59-5.32l2.96-1.15l5.78,20.53l-0.06,0.52
				c-2.72,22.08-35.87,59.32-37.29,60.77L230.07,197.64z M196.74,146.33l33.95,42.54c7.52-8.14,30.87-37.51,33.37-54.59l-4.01-13.48
				c-6.66,2.04-23.94,6.29-48.23,4.8L196.74,146.33z"/>
		</g>
		<path class="st8" d="M277.16,94.25c0,0-15.13-33.01-30.26-51.35l-18.8-1.38L200.6,26.86l-48.63,10.11L131.7,58.4l-41.52,88.61
			l-15.76,10.97l-27.08,53.64l134.92,40.8l72.43-33.92l-51.27-61.24l21.93-48.79c8.03-5.46,25.57-10.65,35.37-13.28l-3.47,7.83
			l2.65,10.03l7.23-7.82L277.16,94.25z"/>
		<path d="M157.06,67.98c4.3-2.72,9.55-4,14.8-3.95c5.26,0.09,10.56,1.54,15.22,4.15c4.63,2.65,8.57,6.47,11.37,10.93
			c2.72,4.51,4.3,9.66,4.19,14.74c-2.16-4.59-4.68-8.64-7.72-12.17c-3.09-3.47-6.65-6.4-10.59-8.67c-3.97-2.22-8.29-3.79-12.87-4.64
			C166.88,67.52,162.1,67.44,157.06,67.98z"/>
		<polygon points="250.47,131.61 264.3,122.72 265.29,129.96 		"/>
		<path d="M259.61,114.83l21.97-20.1c-0.62-1.36-17.32-35.2-32.51-53.61l-0.76-0.93l-19.4-1.42L201.02,23.9L150.54,34.4l-21.19,22.4
			l-41.4,88.34l-15.73,10.94l-28.9,57.26l139.15,42.08l76.29-35.73l-52.14-62.61l23.76-52.19l3.25-21.78l-33.42,74.31l50.41,59.87
			l-68.58,32.12L51.35,209.89l25.25-50.02l15.8-10.99L134.05,60l19.35-20.46l46.77-9.72l27.13,14.47l18.18,1.33
			c12.37,15.4,24.76,40.64,28.19,47.83L258.13,112L259.61,114.83z"/>
		<polygon points="236.24,101.9 232.52,102.83 233.64,83.11 227.41,104 231.6,105.39 		"/>
		<polygon points="266.99,92.84 257.58,94.68 259.08,96.58 256.3,103.79 258.67,113.58 261.52,114.79 257.91,104.15 		"/>
		<g>
			<path class="st6" d="M230.33,41.07l-6.21-9.29l-16.72-7.03l-25.44,6.06l-0.15,0.56l-29.85,5.59L129.6,59.98l-39.43,87.02
				l-15.76,10.97l-15.07,30.54l28.9,17.06l8.19-7.8l-0.63-25.92l8.82-15.69l29.6-31.01l-20.86,3.67l18.3-20
				c0.62,3.06,3.81,8.78,7.64,10.59l1.59-10.19c3.8,12.39,18.14,18.93,31.77,18.93c16.72,0,30.28-13.55,30.28-30.28
				c0-3.83-0.72-7.49-2.02-10.87c9.17-13.41,26.03-31.2,44.57-41.37l-2.22-3.42L230.33,41.07z"/>
			<polygon class="st6" points="267.77,76.23 269.59,90.33 256.3,103.79 259.91,113.04 277.16,94.25 			"/>
		</g>
		<polygon points="71.82,163.64 76.6,159.87 113.5,135.56 92.88,141.75 		"/>
		<path class="st6" d="M210.38,139.99c-11.21-3.85-18.9-8.63-20.68-9.79l-3.84-8.51c-0.95,0.72-1.92,1.4-2.93,2.05l3.97,8.81
			l0.4,0.28c0.56,0.39,8.82,6.03,21.7,10.47C209.42,142.17,209.89,141.07,210.38,139.99z"/>
		<polygon points="229.94,101.53 247.97,89.03 230.62,94.4 		"/>
		<polygon points="235.83,106.39 266.99,92.84 227.35,99.41 		"/>
		<g>
			<polygon class="st0" points="229.28,102.66 256.22,98.38 239.14,109.32 			"/>
			<path d="M249.36,98.05l-16.79,2.66l-6.86,2.32l13.4,9.37l23.51-16.46L249.36,98.05z M233.01,103.48l16.79-2.66l-10.64,6.82
				L233.01,103.48z"/>
		</g>
		<polygon points="235.53,107.99 229.39,113.2 232.17,105.09 		"/>
		<polygon points="197.44,153.87 215.85,104.08 190.89,152.71 		"/>
		<polygon points="169.86,144.92 200.21,157.42 206.63,157.07 203.72,151.85 		"/>
		<path class="st6" d="M240.04,140.33h-9.79c-1.39,0-2.58,0.8-3.17,1.96c-2.72-0.15-5.36-0.43-7.93-0.81l13.79-33.09l-3.85-8.57
			l-25.49,54.62l6.29,9.27l7.87-18.88c3.04,0.47,6.2,0.82,9.47,0.98c0.63,1.01,1.75,1.68,3.03,1.68h9.79c1.98,0,3.58-1.6,3.58-3.58
			v0C243.62,141.93,242.01,140.33,240.04,140.33z"/>
		<path class="st6" d="M254.51,120.96l1.44,3.23l-13.09,10.94l15.25-0.66c0,0-5.38,22.18-14.35,38.68l9.51-9.69l14.71-27.98
			l-4.48-17.58L254.51,120.96z"/>
		<polygon class="st6" points="169.01,187.31 164.52,169.33 154.96,154.15 182.08,161.74 212.85,188.44 		"/>
		<g>
			<polygon points="92.75,144.01 113.5,135.56 78.99,159.71 68.45,188.59 59.05,186.92 75.17,155.74 			"/>
			<polygon points="217.95,186.81 200.21,157.42 169.86,144.92 203.59,154.43 230.69,188.86 			"/>
		</g>
		<g>
			<g>
				<g>
					<g>
						<path d="M236.77,34.26c-2.13-1.29-4.37-2.6-6.66-3.88l-2.23-1.25l-1.42,1.26c-3.05-1.6-6.22-3.18-9.08-4.58l1.26-1.53
							l-4.32-2.04c-2.37-1.12-4.58-2.12-6.74-3.06l-2.28-0.99l-1.69,1.81c-20.51,21.99-36.22,46.52-46.7,72.89l-1.31,3.31l3.33,1.27
							c6.86,2.61,13.54,5.68,19.87,9.12l3.13,1.7l1.65-3.16c12.82-24.51,30.85-46.43,53.6-65.15l3.82-3.15L236.77,34.26z"/>
						<path class="st9" d="M228.39,33.43c-5.15,4.76-14.1,13.92-18.16,18.17l-13.11-8.88c3.04-3.9,11.36-12.6,15.7-17.31
							c-2.19-1.03-4.4-2.04-6.65-3.02c-20.57,22.06-35.98,46.58-46,71.79c7.13,2.72,13.91,5.84,20.29,9.32
							c12.59-24.08,30.9-46.83,54.48-66.23C232.79,35.95,230.61,34.68,228.39,33.43z"/>
						<g>
							<polygon points="175.53,76.39 181.56,69.21 177.92,77.86 							"/>
							<polygon points="183.63,81.39 189.67,74.21 186.03,82.85 							"/>
						</g>
					</g>
					<polygon class="st8" points="202.59,41.57 209.6,46.21 221.38,34.24 214.66,29.96 					"/>
				</g>
				<path class="st6" d="M180.47,103.49c3.63-6.95,7.76-13.78,12.33-20.45c-0.74-0.96-1.52-1.89-2.35-2.77l5.94-17.1l-11.51,12.38
					c-0.81-0.55-1.65-1.05-2.5-1.53l3.4-12.23l-10.33,9.37c-1.31-0.37-2.65-0.67-4.01-0.88c-4.29,7.86-8.05,15.84-11.25,23.89
					C167.31,96.89,174.09,100.02,180.47,103.49z"/>
			</g>
			<polygon class="st6" points="202.59,41.57 209.6,46.21 221.38,34.24 214.66,29.96 			"/>
		</g>
		<g>
			<circle class="st9" cx="166.23" cy="103.3" r="29.72"/>
			<path d="M166.23,136.11c-18.09,0-32.81-14.72-32.81-32.81s14.72-32.81,32.81-32.81c18.09,0,32.81,14.72,32.81,32.81
				S184.32,136.11,166.23,136.11z M166.23,75.86c-15.13,0-27.44,12.31-27.44,27.44s12.31,27.44,27.44,27.44
				c15.13,0,27.44-12.31,27.44-27.44S181.36,75.86,166.23,75.86z"/>
		</g>
		<g>
			<g>
				<g>
					<g>
						<linearGradient id="SVGID_6_" gradientUnits="userSpaceOnUse" x1="169.8907" y1="135.0786" x2="233.9317" y2="135.0786">
							<stop  offset="0" style="stop-color:#9146FF"/>
							<stop  offset="1" style="stop-color:#7222A7"/>
						</linearGradient>
						<path class="st10" d="M232.88,154.62c-29.76,0-52.25-15.37-53.19-16.02l-0.64-0.44l-9.16-20.31l5.12-2.31l8.5,18.86
							c3.33,2.13,23.95,14.61,49.36,14.61h1.05v5.62H232.88z"/>
					</g>
					<g>
						<path d="M174.48,116.93l8.2,18.18c3.09,2.01,23.97,14.95,50.2,14.95v3.51c-29.43,0-51.66-15.19-52.59-15.83l-0.4-0.28
							l-8.61-19.09L174.48,116.93 M175.54,114.14l-1.92,0.87l-3.2,1.44l-1.92,0.87l0.87,1.92l8.61,19.09l0.24,0.53l0.48,0.33
							l0.4,0.28c0.95,0.66,23.71,16.21,53.79,16.21h2.11v-2.11v-3.51v-2.11h-2.11c-24.53,0-44.55-11.77-48.53-14.28l-7.94-17.61
							L175.54,114.14L175.54,114.14z"/>
					</g>
				</g>
			</g>
			<path class="st6" d="M224.46,148.55c-0.39,0.92-0.6,1.94-0.6,3c0,0.93,0.17,1.82,0.47,2.64c2.77,0.27,5.62,0.42,8.55,0.42h1.05
				v-5.62h-1.05C230,149.01,227.2,148.84,224.46,148.55z"/>
			<g>
				<path class="st11" d="M231.65,156.19c-2.55,0-4.63-2.08-4.63-4.63c0-2.56,2.08-4.63,4.63-4.63h9.79c2.55,0,4.63,2.08,4.63,4.63
					c0,2.56-2.08,4.63-4.63,4.63H231.65z"/>
				<g>
					<path d="M241.44,147.98c1.98,0,3.58,1.6,3.58,3.58v0c0,1.98-1.6,3.58-3.58,3.58h-9.79c-1.98,0-3.58-1.6-3.58-3.58v0
						c0-1.98,1.6-3.58,3.58-3.58H241.44 M241.44,145.87h-9.79c-3.14,0-5.69,2.55-5.69,5.69c0,3.14,2.55,5.69,5.69,5.69h9.79
						c3.14,0,5.69-2.55,5.69-5.69C247.13,148.42,244.58,145.87,241.44,145.87L241.44,145.87z"/>
				</g>
			</g>
		</g>
		<path class="st6" d="M165.91,83.58c-12.02,0-21.8,9.78-21.8,21.8c0,12.02,9.78,21.8,21.8,21.8c12.02,0,21.8-9.78,21.8-21.8
			C187.71,93.36,177.93,83.58,165.91,83.58z M165.91,118.68c-7.34,0-14.46-8.28-14.46-15.62c0-7.34,7.13-14.46,14.46-14.46
			c7.34,0,14.46,7.13,14.46,14.46C180.37,110.4,173.24,118.68,165.91,118.68z"/>
		<g>
			<g>
				<g>
					<linearGradient id="SVGID_7_" gradientUnits="userSpaceOnUse" x1="151.6381" y1="88.7147" x2="180.8132" y2="117.8899">
						<stop  offset="0" style="stop-color:#9146FF"/>
						<stop  offset="1" style="stop-color:#7222A7"/>
					</linearGradient>
					<path class="st12" d="M166.23,123.94c-11.38,0-20.64-9.26-20.64-20.64c0-11.38,9.26-20.64,20.64-20.64
						c11.38,0,20.64,9.26,20.64,20.64C186.87,114.68,177.61,123.94,166.23,123.94z M166.23,88.84c-7.97,0-14.46,6.49-14.46,14.46
						c0,7.97,6.49,14.46,14.46,14.46c7.97,0,14.46-6.49,14.46-14.46C180.69,95.33,174.2,88.84,166.23,88.84z"/>
				</g>
				<g>
					<path d="M166.23,83.82c10.74,0,19.48,8.74,19.48,19.48c0,10.74-8.74,19.48-19.48,19.48c-10.74,0-19.48-8.74-19.48-19.48
						C146.74,92.56,155.48,83.82,166.23,83.82 M166.23,118.92c8.61,0,15.62-7.01,15.62-15.62c0-8.61-7.01-15.62-15.62-15.62
						c-8.61,0-15.62,7.01-15.62,15.62C150.61,111.92,157.61,118.92,166.23,118.92 M166.23,81.5c-12.02,0-21.8,9.78-21.8,21.8
						c0,12.02,9.78,21.8,21.8,21.8c12.02,0,21.8-9.78,21.8-21.8C188.02,91.28,178.24,81.5,166.23,81.5L166.23,81.5z M166.23,116.61
						c-7.34,0-13.3-5.97-13.3-13.3c0-7.34,5.97-13.3,13.3-13.3c7.34,0,13.3,5.97,13.3,13.3
						C179.53,110.64,173.56,116.61,166.23,116.61L166.23,116.61z"/>
				</g>
			</g>
		</g>
		<g>
			<polygon class="st6" points="175.01,114.09 173.81,107.3 173.51,105.58 172.31,98.77 172,97.05 170.28,97.35 166.05,98.1 
				165.3,93.86 164.99,92.14 163.27,92.45 156.47,93.65 154.75,93.95 155.05,95.67 158.2,113.54 158.33,114.25 158.92,114.67 
				162.92,117.47 163.52,117.89 164.23,117.76 173.59,116.11 175.31,115.81 			"/>
			<g>
				<g id="Combined-Shape_1_">
					<linearGradient id="SVGID_8_" gradientUnits="userSpaceOnUse" x1="156.1658" y1="93.6881" x2="175.6572" y2="113.1795">
						<stop  offset="0" style="stop-color:#9146FF"/>
						<stop  offset="1" style="stop-color:#7222A7"/>
					</linearGradient>
					<polygon class="st13" points="165.03,115.1 160.43,111.88 157.06,92.79 165.59,91.29 166.64,97.24 172.6,96.19 175.6,113.23 
											"/>
					<path d="M164.88,92.3l1.05,5.96l5.96-1.05l1.2,6.81l-5.96,1.05l0.3,1.7l5.96-1.05l1.2,6.81l-9.36,1.65l-4-2.8l-3.15-17.87
						L164.88,92.3 M166.3,90.28l-1.72,0.3l-6.81,1.2l-1.72,0.3l0.3,1.72l3.15,17.87l0.13,0.71l0.59,0.41l4,2.8l0.59,0.41l0.71-0.13
						l9.36-1.65l1.72-0.3l-0.3-1.72l-1.2-6.79l-0.3-1.72l-1.2-6.81l-0.3-1.72l-1.72,0.3l-4.24,0.75L166.6,92L166.3,90.28
						L166.3,90.28z"/>
				</g>
			</g>
		</g>
		<g>
			<polygon points="216.63,171.64 222.79,158.52 212.49,166.65 			"/>
			<polygon points="219.46,175.05 223.44,179.85 230.13,167.99 			"/>
		</g>
		<g>
			<path d="M346.47,264.03v-8.32V191.7v-6.66h-6.66h-17.19h-6.68l0.02,6.68l0.03,9.71h-5.04l-0.05-9.73l-0.03-6.63l-6.63-0.04
				h-17.19h-6.71l0.02,2.9c-2.76-1.75-6.59-2.9-11.88-2.9h0l-0.1,0l-24.4,0c-3.48,0.01-6.46,0.45-9,1.33l-0.01-1.33H131.53
				l-1.15,5.23c-0.59,2.69-1.17,5.33-1.75,7.93c-0.87-2.83-1.72-5.64-2.57-8.43l-1.43-4.73h-4.94H103.5h-4.92l-1.45,4.71
				c-0.91,2.98-1.82,5.95-2.73,8.92c-0.52-2.74-1.04-5.47-1.55-8.2l-1.02-5.43h-5.52H76.1h-6.7h-0.37h-8.64H20.19h-6.66v6.66v14.63
				v7.01l7-0.35c2.97-0.15,5.96-0.3,8.95-0.44l-0.03,11.19l-0.08,28.6l-0.02,8.15l14.69,9.03l7.21-1.45
				c5.05-1.01,10.19-1.98,15.27-2.87l4.95-0.87l0.03-5.02l0.14-28.52l0.02-3.83c1.79,6.49,3.6,12.94,5.41,19.31l1.57,5.54v0
				l9.88,9.88l5.15-0.69c0.8-0.11,1.61-0.2,2.42-0.31v19.01c0,5.39,2.05,9.53,5.66,11.94l7.39,5.85l0.02,0
				c2.1,1.48,4.81,2.28,8.02,2.28h13.62h0.38h7.71h9.74h4.66l1.16-4.52l0.72-2.79h0.25l0.4,1.54h0l2.36,5.77h4.66h6.06h4.09h1.93
				h6.19h2.26h1.09h4.92h1.09h8.14h6.01v-5.27l1.51,2.43l1.76,2.84h3.34h6.36h2.11h3.9h2.11h23.91h6.01l8.17-5.77v-6.66v-8.99v-6.66
				h-6.66h-3.23l7.61-11.4c0.45,0.02,0.9,0.05,1.32,0.05c3.18,0,5.88-0.66,8.08-1.93l0.02,3.21l5.1,0.76
				c5.09,0.75,10.25,1.58,15.32,2.46l7.07,1.22l4.42-3.25l0.01,4.1l4.83,0.96c5.06,1.01,10.18,2.09,15.22,3.21l7.32,1.64
				L346.47,264.03L346.47,264.03z"/>
			<path class="st0" d="M36.16,205.56c-5.32,0.24-10.65,0.5-15.97,0.77c0-4.88,0-9.76,0-14.63c16.4,0,32.8,0,49.2,0
				c-0.03,4.18-0.05,8.35-0.08,12.53c-5.33,0.19-10.66,0.39-15.99,0.6c-0.07,14.77-0.15,29.55-0.22,44.32
				c-5.7,1-11.39,2.07-17.07,3.21C36.07,236.76,36.11,221.16,36.16,205.56z M69.02,191.7c5.76,0,11.52,0,17.29,0
				c2.23,11.84,4.46,23.47,6.7,34.92c3.5-11.92,7-23.54,10.5-34.92c5.4,0,10.79,0,16.19,0c3.34,11.04,6.69,21.88,10.06,32.58
				c2.39-10.97,4.77-21.82,7.14-32.58c5.52,0,11.04,0,16.55,0c-4.99,15.62-10.01,31.42-15.05,47.56
				c-5.94,0.34-11.88,0.75-17.82,1.23c-3.06-9.83-6.11-19.8-9.15-29.94c-3.18,10.37-6.37,20.92-9.56,31.7
				c-6.14,0.66-12.27,1.39-18.4,2.21C78.65,227.53,73.85,209.99,69.02,191.7z M157,191.7c5.73,0,11.46,0,17.19,0
				c-0.01,15.47-0.02,30.93-0.04,46.4c-5.77,0.05-11.53,0.16-17.3,0.34C156.91,222.86,156.95,207.28,157,191.7z M195.15,202.33
				c-5.34-0.03-10.68-0.04-16.03-0.04c0-3.53,0-7.07,0-10.6c16.4,0,32.8,0,49.2,0c0.02,3.66,0.04,7.31,0.06,10.97
				c-5.34-0.08-10.68-0.15-16.02-0.2c0.05,12.11,0.1,24.22,0.15,36.33c-5.76-0.26-11.53-0.44-17.29-0.56
				C195.2,226.27,195.18,214.3,195.15,202.33z M231.57,230.53c-0.06-9.82-0.11-19.65-0.17-29.47c-0.04-6.32,4.15-9.35,12.57-9.36
				c8.14,0,16.28,0,24.42,0c8.41-0.02,12.28,3.33,12.33,10.37c0.02,3.33,0.05,6.66,0.07,9.99c-5.73-0.3-11.46-0.58-17.19-0.83
				c-0.02-2.27-0.03-4.53-0.05-6.8c-0.01-1.02-0.38-1.33-1.66-1.36c-3.87-0.1-7.75-0.19-11.62-0.27c-1.28-0.03-1.65,0.25-1.64,1.24
				c0.06,8.32,0.11,16.64,0.17,24.95c0.01,0.99,0.38,1.3,1.66,1.4c3.88,0.29,7.76,0.61,11.63,0.95c1.28,0.11,1.65-0.15,1.64-1.17
				c-0.02-2.27-0.03-4.53-0.05-6.8c5.74,0.41,11.47,0.86,17.19,1.35c0.02,3.33,0.05,6.66,0.07,9.99c0.05,7.05-3.94,9.81-12.36,8.75
				c-8.14-0.99-16.3-1.85-24.47-2.56C235.67,240.14,231.61,236.86,231.57,230.53z M287.04,191.7c5.73,0,11.46,0,17.19,0
				c0.04,7.12,0.07,14.23,0.11,21.35c6.12,0.39,12.23,0.82,18.34,1.27c-0.02-7.54-0.04-15.08-0.07-22.62c5.73,0,11.46,0,17.19,0
				c0,21.34,0,42.68,0,64.02c-5.66-1.27-11.33-2.46-17.02-3.59c-0.02-8-0.05-16-0.07-24c-6.1-0.73-12.2-1.41-18.31-2.04
				c0.04,7.55,0.08,15.1,0.12,22.65c-5.7-0.98-11.41-1.9-17.13-2.75C287.28,227.89,287.16,209.79,287.04,191.7z M102.75,279.72
				v-24.06c0-5.17,2.47-7.64,7.64-7.64h15.51c5.17,0,7.64,2.47,7.64,7.64v5.34h-10.45v-3.32c0-0.79-0.22-1.01-1.01-1.01h-7.76
				c-0.79,0-1.01,0.22-1.01,1.01v20.01c0,0.79,0.22,1.01,1.01,1.01h7.76c0.79,0,1.01-0.22,1.01-1.01v-4.95h-5.79v-8.32h16.24v15.29
				c0,5.17-2.47,7.64-7.64,7.64h-15.51C105.22,287.37,102.75,284.9,102.75,279.72z M158.9,279.28h-11.58l-2.08,8.09h-10.79
				l11.86-39.35h13.94l11.97,39.35h-11.24L158.9,279.28z M156.76,270.84l-3.65-14.22l-3.65,14.22H156.76z M174.35,248.02h10.57
				v39.35h-10.57V248.02z M190.37,248.02h10.51l12.87,20.91v-20.91h10.23v39.35h-9.39l-14-22.54v22.54h-10.23V248.02z
				 M228.31,280.68l15.85-23.66h-14.84v-8.99h27.93v6.69l-15.79,23.66h15.68v8.99h-28.83V280.68z"/>
			<g>
				<linearGradient id="SVGID_9_" gradientUnits="userSpaceOnUse" x1="187.9212" y1="253.9011" x2="187.9212" y2="213.4471">
					<stop  offset="0" style="stop-color:#FFFFFF"/>
					<stop  offset="0.4193" style="stop-color:#FDFDFD"/>
					<stop  offset="0.6349" style="stop-color:#F5F5F5"/>
					<stop  offset="0.8042" style="stop-color:#E8E8E8"/>
					<stop  offset="0.9484" style="stop-color:#D5D5D5"/>
					<stop  offset="1" style="stop-color:#CCCCCC"/>
				</linearGradient>
				<path class="st14" d="M84.52,242.85c-2.39-8.42-4.77-16.98-7.13-25.61c4.05-0.3,8.1-0.59,12.14-0.85
					c0.68,3.52,1.36,7.04,2.04,10.51l0.65,3.35l0.49,2.51l0.72-2.46l0.96-3.28c1.08-3.69,2.19-7.42,3.31-11.16
					c3.58-0.22,7.16-0.41,10.74-0.6c-2.65,8.67-5.24,17.28-7.71,25.64C95.37,241.49,89.92,242.14,84.52,242.85z M37.49,250.58
					c4.7-0.93,9.45-1.82,14.16-2.66l0.14-28.5c-4.74,0.45-9.48,0.92-14.22,1.42L37.49,250.58z M211.05,237.27l-0.09-23.46
					c-4.77-0.11-9.55-0.21-14.33-0.27l0.05,23.26C201.45,236.91,206.28,237.07,211.05,237.27z M137.3,237.86
					c2.39-7.65,4.85-15.45,7.56-24c-3.81,0.1-7.61,0.2-11.42,0.33c-0.77,3.51-1.52,6.97-2.27,10.39l-0.67,3.07l-0.5,2.3l-0.71-2.24
					l-0.94-2.99c-1.07-3.41-2.13-6.81-3.19-10.21c-3.63,0.14-7.26,0.3-10.89,0.47c2.38,7.87,4.83,15.9,7.34,23.97
					C126.79,238.53,132.06,238.17,137.3,237.86z M172.72,213.45c-4.78,0.02-9.55,0.07-14.33,0.14l-0.07,23.35
					c4.78-0.14,9.61-0.24,14.38-0.28L172.72,213.45z M265.14,224.93l0.04,5.22c0,0.33,0.01,1.35-0.74,2.04
					c-0.45,0.42-1.06,0.62-1.86,0.62c-0.19,0-0.39-0.01-0.63-0.03c-3.91-0.34-7.82-0.66-11.61-0.95c-0.82-0.06-2.99-0.22-3.01-2.84
					l0-0.17l-0.09-13.66c-4.77-0.24-9.54-0.46-14.31-0.65l0.09,16.01c0.03,5.55,3.38,8.22,11.21,8.91
					c8.14,0.71,16.38,1.58,24.51,2.57c1.11,0.14,2.15,0.21,3.07,0.21c2.6,0,4.47-0.53,5.7-1.63c1.33-1.18,1.97-3.1,1.95-5.87
					l-0.06-8.66C274.7,225.65,269.91,225.27,265.14,224.93z M288.67,217.9l0.18,26.84c4.73,0.71,9.5,1.47,14.22,2.27l-0.11-21.84
					l0-0.7l0.69,0.07l0.92,0.1c6.1,0.63,12.27,1.32,18.33,2.05l0.73,0.09l0.55,0.07l0,0.55l0.07,23.54
					c4.71,0.94,9.45,1.94,14.11,2.97v-31.03C321.82,220.91,305.25,219.25,288.67,217.9z"/>
				<linearGradient id="SVGID_10_" gradientUnits="userSpaceOnUse" x1="179.9435" y1="285.9121" x2="179.9435" y2="264.0323">
					<stop  offset="0" style="stop-color:#FFFFFF"/>
					<stop  offset="0.4193" style="stop-color:#FDFDFD"/>
					<stop  offset="0.6349" style="stop-color:#F5F5F5"/>
					<stop  offset="0.8042" style="stop-color:#E8E8E8"/>
					<stop  offset="0.9484" style="stop-color:#D5D5D5"/>
					<stop  offset="1" style="stop-color:#CCCCCC"/>
				</linearGradient>
				<path class="st15" d="M118.76,271.3h5.17h0.62v0.62v5.78c0,1.59-0.88,2.47-2.47,2.47h-7.76c-1.59,0-2.47-0.88-2.47-2.47v-13.67
					h-7.65v15.69c0,4.34,1.85,6.19,6.19,6.19h15.51c4.39,0,6.19-1.79,6.19-6.19v-13.83h-13.33V271.3z M175.81,264.03v21.88h7.65
					v-21.88H175.81z M156.51,264.03l1.92,7.49l0.2,0.78h-0.81h-9.45h-0.81l0.2-0.78l1.92-7.49H143l-6.6,21.88h7.7l1.96-7.63
					l0.12-0.47h0.48h12.87h0.48l0.12,0.47l1.96,7.63h8.14l-6.66-21.88H156.51z M238.73,279.83l0.65-0.97l9.9-14.83h-8.07
					l-11.45,17.09v4.79h25.92v-6.08H239.9H238.73z M191.83,264.03v21.88h7.32v-21.88H191.83z M215.21,264.03v7.84v2.21l-1.16-1.88
					l-5.03-8.17h-7.2l13.59,21.88h7.12v-21.88H215.21z"/>
			</g>
		</g>
		<polygon points="160.02,295.75 152.26,287.02 152.26,296.72 		"/>
	</g>
</g>
</svg>
